<svg width="16" height="16" viewBox="0 0 16 16" fill="none" xmlns="http://www.w3.org/2000/svg">
<path d="M7.30021 1.00003H14.087C14.592 1.00003 15.0013 1.40926 15.0013 1.91434V9.21371C15.0013 9.71986 14.592 10.1291 14.087 10.1291H8.53867M3.85299 4.77033C4.35296 4.77033 4.83245 4.57172 5.18599 4.21818C5.53952 3.86465 5.73814 3.38515 5.73814 2.88518C5.73814 2.38521 5.53952 1.90571 5.18599 1.55218C4.83245 1.19864 4.35296 1.00003 3.85299 1.00003C3.35301 1.00003 2.87352 1.19864 2.51998 1.55218C2.16645 1.90571 1.96783 2.38521 1.96783 2.88518C1.96783 3.38515 2.16645 3.86465 2.51998 4.21818C2.87352 4.57172 3.35301 4.77033 3.85299 4.77033Z" stroke="#2051E5" stroke-width="1.5" stroke-linecap="round" stroke-linejoin="round"/>
<path d="M10.154 6.41371C10.154 5.80309 9.65863 5.30771 9.04802 5.30771H3.85295C3.09635 5.30771 2.37074 5.60827 1.83574 6.14326C1.30074 6.67826 1.00018 7.40387 1.00018 8.16047V10.6923H2.22249L2.63064 15H5.07525L6.01433 7.52078H9.04802C9.65863 7.52078 10.154 7.0254 10.154 6.41371Z" stroke="#2051E5" stroke-width="1.5" stroke-linecap="round" stroke-linejoin="round"/>
</svg>
